<?xml version="1.0" standalone="no"?>
<!DOCTYPE svg PUBLIC "-//W3C//DTD SVG 20010904//EN"
 "http://www.w3.org/TR/2001/REC-SVG-20010904/DTD/svg10.dtd">
<svg version="1.0" xmlns="http://www.w3.org/2000/svg"
 width="256.000000pt" height="256.000000pt" viewBox="0 0 256.000000 256.000000"
 preserveAspectRatio="xMidYMid meet">
<metadata>
Created by potrace 1.11, written by Peter Selinger 2001-2013
</metadata>
<g transform="translate(0.000000,256.000000) scale(0.100000,-0.100000)"
fill="#000000" stroke="none">
<path d="M1097 2539 c-9 -13 -53 -73 -97 -134 -44 -60 -85 -115 -90 -122 -6
-7 -20 -27 -33 -45 -62 -92 -79 -108 -112 -108 -31 0 -32 -2 -45 -57 -16 -68
-15 -64 -23 -83 -3 -8 -17 -57 -30 -107 -20 -75 -22 -93 -11 -93 8 0 14 -5 14
-11 0 -5 4 -8 8 -5 4 2 55 -9 112 -25 58 -17 112 -32 120 -34 53 -12 177 -47
190 -52 8 -3 21 -7 29 -9 8 -1 26 -6 40 -10 14 -4 29 -7 34 -6 4 1 7 -2 7 -7
0 -4 8 -8 18 -8 9 1 44 -7 77 -17 59 -18 75 -22 124 -32 13 -3 32 -9 43 -15
10 -5 18 -7 18 -3 0 3 6 1 13 -5 8 -6 17 -8 20 -4 4 3 13 0 22 -7 8 -7 15 -9
15 -5 0 4 6 2 13 -4 8 -6 17 -8 20 -5 3 3 12 2 19 -2 13 -9 29 -13 61 -16 9
-1 17 -5 17 -9 0 -4 15 -9 33 -12 17 -2 66 -14 107 -26 41 -12 82 -24 90 -26
8 -2 17 -4 20 -5 3 -1 9 -2 14 -1 4 1 14 -4 22 -10 8 -6 14 -9 14 -5 0 3 12 1
26 -5 15 -5 41 -12 59 -15 32 -5 34 -3 43 38 6 24 25 98 44 165 19 67 32 126
29 131 -3 5 -16 14 -27 20 -19 10 -22 24 -29 114 -4 56 -8 109 -10 118 -2 9
-6 56 -9 106 -4 49 -10 107 -13 129 -4 22 -7 49 -7 59 -1 16 -38 36 -176 96
-247 109 -302 126 -501 154 -289 42 -301 42 -322 15z m300 -134 c162 -24 254
-48 358 -96 22 -10 80 -36 130 -57 102 -45 100 -41 110 -185 3 -51 8 -120 12
-154 4 -51 3 -63 -9 -63 -8 0 -18 3 -22 8 -4 4 -11 7 -14 7 -4 1 -17 6 -29 13
-13 7 -23 10 -23 6 0 -3 -6 -2 -13 4 -6 6 -37 20 -67 32 -30 12 -68 28 -85 36
-51 23 -115 44 -115 36 0 -4 -4 -2 -8 4 -6 11 -107 44 -172 58 -135 29 -262
51 -390 67 -52 6 -97 13 -99 15 -4 4 71 108 81 112 5 2 8 8 8 14 0 6 10 23 23
38 12 15 29 38 37 50 8 13 23 30 33 39 9 8 17 21 17 28 0 19 41 16 237 -12z
m-488 -386 c27 -9 30 -15 25 -37 -7 -37 -12 -57 -14 -59 -2 -2 -3 -6 -4 -10
-13 -60 -17 -65 -44 -58 -15 4 -35 8 -45 10 -27 6 -38 15 -30 28 4 6 8 18 9
27 2 8 8 36 15 63 14 52 27 57 88 36z m1114 -309 c35 0 38 -17 18 -92 -22 -80
-29 -92 -45 -79 -7 6 -23 12 -36 14 -40 6 -44 26 -21 105 20 65 24 71 41 62
10 -5 30 -10 43 -10z"/>
<path d="M626 1728 c-2 -7 -9 -28 -15 -47 -16 -50 -14 -60 14 -67 14 -3 25 -7
25 -8 0 0 -11 -42 -25 -91 -27 -100 -27 -93 -13 -118 11 -21 47 -38 108 -50
14 -3 25 -6 25 -7 0 -1 9 -3 20 -5 36 -7 64 22 80 83 9 31 19 64 22 72 8 19
10 27 12 40 1 11 53 5 80 -9 9 -5 18 -9 21 -8 10 2 105 -25 123 -34 10 -5 22
-7 27 -4 5 3 11 1 15 -5 4 -6 10 -8 15 -5 5 3 11 1 15 -5 4 -6 11 -8 16 -5 5
4 15 3 22 -2 6 -4 18 -9 25 -10 30 -7 47 -12 47 -13 0 -2 36 -10 58 -12 9 -1
17 -5 17 -8 0 -3 9 -7 20 -8 43 -4 50 -6 50 -13 0 -4 8 -7 18 -7 9 1 35 -4 57
-10 22 -6 42 -11 45 -10 3 1 15 -4 26 -10 12 -6 36 -14 54 -17 18 -3 47 -12
65 -19 19 -8 36 -12 39 -9 11 11 37 -20 31 -36 -4 -9 -8 -23 -10 -31 -2 -8
-10 -40 -18 -70 -8 -30 -12 -62 -9 -73 6 -23 37 -44 77 -52 47 -10 49 -10 61
-17 11 -7 27 -6 60 5 19 7 44 62 48 107 1 9 5 20 8 25 3 6 9 25 13 44 4 18 10
30 14 25 3 -5 16 -10 28 -10 18 -1 25 7 37 49 16 55 10 69 -34 80 -14 3 -36 8
-50 12 -14 3 -35 8 -47 11 -12 2 -34 9 -48 14 -14 5 -25 7 -25 4 0 -4 -6 -1
-14 5 -8 6 -18 11 -22 10 -5 -1 -12 0 -16 1 -5 1 -11 3 -15 5 -5 1 -15 4 -23
7 -17 7 -139 40 -155 42 -5 1 -16 5 -22 9 -7 5 -13 6 -13 3 0 -3 -12 -1 -27 5
-16 6 -36 13 -45 15 -10 2 -28 7 -40 10 -13 3 -30 7 -38 9 -8 2 -15 4 -15 6 0
1 -34 8 -62 11 -7 1 -13 6 -13 11 0 6 -3 8 -6 4 -3 -3 -23 1 -45 8 -22 8 -40
14 -42 14 -1 -1 -22 4 -47 11 -25 7 -49 13 -55 14 -5 1 -16 5 -22 9 -7 5 -13
6 -13 2 0 -3 -16 2 -37 10 -20 8 -38 13 -41 10 -3 -3 -11 0 -19 6 -7 6 -13 8
-13 5 0 -4 -8 -2 -18 3 -11 6 -30 12 -43 14 -13 3 -49 12 -79 22 -30 9 -64 18
-75 20 -11 2 -32 8 -47 14 -16 6 -28 8 -28 5 0 -2 -8 -1 -17 4 -36 18 -73 23
-77 10z"/>
<path d="M670 1129 c0 -4 -16 -6 -35 -4 -19 1 -35 -1 -35 -6 0 -4 -8 -6 -17
-5 -9 2 -36 -3 -60 -10 -24 -7 -43 -11 -43 -9 0 14 -87 -45 -99 -66 -14 -24
-13 -29 10 -56 22 -28 129 -107 146 -109 5 0 36 -14 71 -31 34 -17 62 -29 62
-26 0 3 6 1 13 -5 13 -11 87 -43 87 -38 0 2 -25 22 -55 45 -103 78 -147 131
-140 168 2 10 4 21 4 25 2 11 112 61 144 65 16 2 42 6 56 9 14 3 73 7 131 9
58 2 110 4 115 5 13 2 -60 29 -100 36 -44 9 -255 11 -255 3z"/>
<path d="M1456 1122 c-3 -3 -52 -11 -97 -16 -14 -1 -31 -6 -38 -10 -7 -5 -15
-5 -18 -2 -3 3 -18 -1 -34 -10 -16 -8 -31 -14 -34 -14 -29 2 -155 -55 -195
-89 -82 -68 -115 -124 -124 -211 -9 -87 -13 -100 -48 -157 -51 -84 -187 -216
-277 -269 -53 -31 -34 -35 31 -7 156 67 275 144 325 210 15 21 32 41 36 44 5
3 8 9 8 13 -1 3 -1 7 0 9 2 6 9 44 13 67 3 14 7 35 10 48 3 12 8 30 10 40 11
46 30 76 83 132 32 33 61 60 65 60 4 0 28 13 53 29 25 16 71 39 103 52 31 12
60 28 64 33 4 6 8 7 8 3 0 -4 10 -2 23 5 12 6 31 14 42 15 11 2 25 9 32 16 10
9 7 12 -13 12 -14 0 -27 -1 -28 -3z"/>
<path d="M1098 660 c13 -6 33 -12 45 -14 36 -8 58 -14 137 -36 41 -12 80 -23
85 -24 6 -2 17 -6 25 -9 8 -3 44 -15 80 -28 170 -57 276 -106 362 -167 65 -46
96 -110 66 -140 -7 -7 -9 -12 -5 -12 15 0 -23 -58 -61 -92 -48 -43 -114 -83
-190 -114 l-57 -24 46 0 c109 0 314 76 377 141 85 86 91 186 16 269 -36 40
-192 124 -253 136 -17 4 -31 11 -31 16 0 5 -3 7 -8 4 -4 -2 -49 6 -101 19 -97
25 -245 53 -321 61 -25 2 -56 7 -70 9 -14 3 -56 7 -95 10 -50 3 -64 2 -47 -5z"/>
</g>
</svg>
